<svg xmlns="http://www.w3.org/2000/svg" viewBox="0 0 512 512">
<rect width="512" height="512" rx="108" fill="#17365d"/>
<path d="M78 344l110-156 66 84 62-96 118 168H78z" fill="#eaf3fb"/>
<path d="M78 344l110-156 39 50-73 106H78zm176-72l62-96 118 168H302z" fill="#7fb0d1"/>
<circle cx="375" cy="118" r="42" fill="#fff2df"/>
<path d="M106 380c68-18 120-14 170 6 48 19 92 20 140-2" fill="none" stroke="#f5f7f9" stroke-width="18" stroke-linecap="round"/>
<circle cx="166" cy="378" r="24" fill="none" stroke="#f5f7f9" stroke-width="12"/>
<circle cx="246" cy="378" r="24" fill="none" stroke="#f5f7f9" stroke-width="12"/>
<path d="M166 378l34-44h40l28 44m-68-44l-16-30h28" fill="none" stroke="#f5f7f9" stroke-width="10" stroke-linecap="round" stroke-linejoin="round"/>
</svg>